# xmcd CD database file
#
# Track frame offsets:
#	150
#	16905
#	38421
#	54762
#	72059
#	89434
#	106730
#	122131
#	141877
#	158040
#	172441
#	188887
#	202952
#	217268
#	231992
#
# Disc length: 3306 seconds
#
# Revision: 0
# Processed by: cddbd v1.5.2PL0 Copyright (c) Steve Scherf et al.
# Submitted via: CDex 1.51
#
DISCID=ce0ce80f
DTITLE=Various Artist - Bachata Summer 2013
DYEAR=2013
DGENRE=Salsa
TTITLE0=Senior Bachata feat. Marxia - Piensa En Mi
TTITLE1=Chacal Y Yarkata - Luna
TTITLE2=Principes De La Bachata - Quedate Conmigo
TTITLE3=Grupo Extra - Sin Ti
TTITLE4=Senior Bachata - Amor Que Sembre
TTITLE5=Chacal Y Yarkata - Nunca Te Apartes De Mi
TTITLE6=Angeles De La Bachata - Amor Pedido
TTITLE7=Este Habana - Escapemonos
TTITLE8=Senior Bachata - Si Hay Amor
TTITLE9=Angeles De La Bachata - Confesion
TTITLE10=Principes De La Bachata - Si Usted Me Ve
TTITLE11=Angeles De La Bachata - Amor Pedido
TTITLE12=Principes De La Bachata feat. Ernesto Company - Hacerte El Amor
TTITLE13=Grupo Extra - Mi Amor
TTITLE14=Angeles De La Bachata - Perdonala
EXTD=YEAR: 2013
EXTT0=
EXTT1=
EXTT2=
EXTT3=
EXTT4=
EXTT5=
EXTT6=
EXTT7=
EXTT8=
EXTT9=
EXTT10=
EXTT11=
EXTT12=
EXTT13=
EXTT14=
PLAYORDER=
